Patient4_TMGait_0pt2_03_right_19_EMG.mot
version=1
nRows=16
nColumns=33
inDegrees=no
endheader
time	1LAddLong	2LGlutMax	3LGlutMed	4LIliopsoas	5LSemiMemb	6LBicFemLong	7LRecFem	8LVastMed	9LVastLat	10LGasMed	11LTibAnt	12lTibPost	13LPeroneusLong	14LSol	15LExtDigLong	16LFlexDigLong	17RAddLong	18RGlutMax	19RGlutMed	20RIliopsoas	21RSemiMemb	22RBicFemLong	23RRecFem	24RVastMed	25RVastLat	26RGasMed	27RTibAnt	28RTibPost	29RPeroneusLong	30RSol	31RExtDigLong	32RFlexDigLong
40.85	0.04837	0.039368	-0.024719	0.060883	0.058136	0.073853	-0.017548	0.007324	0.057526	0.009003	-0.027618	0.009155	0.003662	0.12054	0.047607	-0.00946	-0.090637	-0.075378	0.12756	-0.075378	-0.097656	0.076752	-0.31845	0.0354	0.06424	-0.003662	0.21515	-0.00061	0.000305	0.048828	-0.001373	-0.011292
40.851	0.018921	0.080414	-0.023193	0.052185	0.073395	0.000916	0.005035	0.010529	-0.001831	0.005798	-0.024414	0.001373	0.058136	0.079956	0.083313	-0.007782	-0.13367	-0.098267	-0.20676	-0.03479	-0.12787	0.07843	-0.32547	0	0.054321	-0.006714	0.23697	-0.000153	0.094147	0.058899	-0.005188	-0.011749
40.852	0.050659	0.063782	-0.20218	0.039368	0.050201	-0.083923	0.009308	0.013123	0.045471	-0.014038	0.00885	-0.001984	0.16174	0.02182	0.095062	-0.017853	-0.13321	-0.061798	0.13687	0.037384	-0.13901	0.011902	-0.32944	0.005798	0.050659	-0.005798	-0.26825	0	0.008698	-0.010986	-0.00473	-0.008698
40.853	0.037384	0.084839	-0.27878	0.03479	0.045166	-0.22324	-0.13016	-0.004883	0.10986	-0.054016	0.008392	0.002441	0.000916	0.044861	0.048218	-0.007019	-0.055542	-0.025177	0.12085	0.18448	-0.15961	-0.036011	-0.33112	0.000916	0.0354	-0.009003	-0.18982	-0.001984	-0.39948	-0.010376	-0.002747	-0.006256
40.854	0.049744	0.12741	-0.29648	0.020142	0.039673	-0.41397	-0.13641	-0.027466	0.0354	-0.050507	0.00412	0.004883	-0.17731	0.066986	-0.050812	-0.007019	0.018158	-0.014496	-0.098724	0.21362	-0.17059	-0.067749	-0.33127	-0.042419	0.03006	-0.007782	-0.016022	-0.002136	-0.059509	0.025177	-0.002899	-0.001221
40.855	0.034943	0.088959	-0.18326	-0.029602	0.036163	-0.28992	-0.05722	-0.009918	-0.020294	-0.040131	0.000305	0.006714	0.015869	0.090027	-0.093079	-0.00412	0.10086	-0.045929	-0.38071	0.13321	-0.17303	-0.071716	-0.29022	-0.049744	0.004425	-0.008087	0.2269	-0.003815	0.10666	0.050507	-0.005188	-0.006104
40.856	0.033875	0.017242	-0.19867	-0.044403	0.013885	-0.063782	-0.085449	0.006409	0.041351	0.056458	0.01358	-0.000916	0.3775	0.10193	-0.025177	0.004578	0.088959	-0.070038	-0.18463	0.008392	-0.17258	-0.091858	-0.24063	-0.10361	-0.001526	-0.004578	0.38162	-0.006714	-0.16037	0.038147	0.002136	0.000153
40.857	0.038605	-0.025177	0.16586	-0.019684	0.018005	0.035553	-0.035248	0.007019	0.11658	0.068512	0.013885	0.007172	0.43442	0.090485	0.044403	0.000458	0.089417	-0.009918	0.12924	-0.071259	-0.17517	-0.083313	-0.22034	-0.12558	-0.003052	-0.004883	0.36209	-0.006256	-0.16174	0.039063	-0.004578	-0.003357
40.858	0.027924	-0.02182	0.21378	0.01358	-0.045471	0.036621	-0.005798	0.002289	0.047302	0.11581	0.019684	-0.001068	-0.14633	0.013733	-0.015717	0.006256	0.076752	-0.026245	0.061798	-0.12039	-0.15259	-0.078583	-0.21179	-0.1088	-0.001984	-0.007935	0.5513	-0.002747	-0.20004	-0.006866	-0.007019	0
40.859	0.026093	-0.026398	0.26718	-0.002136	-0.020599	0.030212	-0.014191	0.019989	-0.078888	0.18463	0.032501	0.011597	-0.032043	-0.024872	-0.055389	0.006561	0.057678	-0.039368	0.023193	-0.112	-0.13809	-0.064697	-0.24002	-0.13321	0.006866	0.003204	0.43289	-0.002289	-0.070343	-0.012817	-0.00412	0.00946
40.86	0.006714	-0.045624	0.21668	-0.007935	0.02594	0.029907	0.004425	0.049591	-0.077515	0.090637	0.037384	0.009003	0.47012	0.11688	0.050659	0.012665	0.02121	-0.048828	-0.15717	-0.017395	-0.11429	-0.050812	-0.22415	-0.12741	0.023651	0.004425	0.018768	-0.007172	-0.058441	-0.046539	-0.001831	0.006561
40.861	-0.005798	0.002441	0.12955	-0.018768	0.014954	0.084381	0.008698	0.020294	-0.022583	0.055237	0.021515	0.001526	-0.39261	0.097961	0.055084	0.023346	-0.013123	-0.066071	-0.43015	0.062561	-0.091248	-0.027466	-0.21347	-0.087738	0.039978	0.002747	-0.41092	-0.006409	0.070038	-0.17212	-0.001221	0.001068
40.862	-0.027008	0.047607	0.15259	-0.005493	-0.030212	0.1088	0.050354	0.001984	0.021667	0.11765	0.010529	0.005646	-0.40695	0.007935	0.063019	0.010376	-0.029297	-0.085449	-0.58762	0.07019	-0.064087	-0.028839	-0.21561	-0.020752	0.033569	0.001221	-0.70953	-0.003357	0.073242	-0.15976	-0.006104	-0.00473
40.863	-0.023346	0.049286	0.15808	0.010834	-0.093079	0.11124	0.076904	0.000458	-0.013733	0.14923	0.00351	0.006104	-0.40176	-0.13901	0.023956	-0.02594	0.00351	-0.076752	-0.82748	0.073547	-0.043488	-0.029602	-0.24124	-0.026855	0.031891	0.002747	-0.50949	-0.001831	-0.068512	-0.094452	-0.00061	-0.014648
40.864	-0.00824	0.086823	0.10529	0.032654	-0.097198	-0.003662	0.036163	0.0177	-0.14069	0.12665	-0.013733	0.002747	0.17395	-0.28641	-0.066223	-0.019531	0.05249	-0.10803	-0.94559	0.14099	-0.054932	-0.03891	-0.20767	-0.029449	0.017395	0.001831	0.14694	-0.007324	-0.003052	-0.052795	-0.005646	-0.006866
40.865	-0.020142	0.084534	0.046997	0.011902	-0.037231	-0.033264	-0.023499	0.035553	-0.21561	0.01709	-0.059357	0.011139	0.21164	-0.1709	-0.036621	0.002594	0.067444	-0.039215	-0.55039	0.041962	-0.072174	-0.055695	-0.19821	0.051575	0.01236	0.002289	-0.35904	-0.007629	0.11902	0.005188	-0.010376	-0.00946
